<?xml version="1.0" encoding="UTF-8" standalone="no"?>
<!DOCTYPE svg PUBLIC "-//W3C//DTD SVG 1.1//EN" "http://www.w3.org/Graphics/SVG/1.1/DTD/svg11.dtd">
<svg width="100%" height="100%" viewBox="0 0 1090 127" version="1.1" xmlns="http://www.w3.org/2000/svg" xmlns:xlink="http://www.w3.org/1999/xlink" xml:space="preserve" xmlns:serif="http://www.serif.com/" style="fill-rule:evenodd;clip-rule:evenodd;stroke-linejoin:round;stroke-miterlimit:2;">
    <rect id="Artboard1" x="0" y="0" width="1089.23" height="126.643" style="fill:none;"/>
    <clipPath id="_clip1">
        <rect id="Artboard11" serif:id="Artboard1" x="0" y="0" width="1089.23" height="126.643"/>
    </clipPath>
    <g clip-path="url(#_clip1)">
        <path d="M62.304,109.917C90.774,109.917 105.009,92.86 105.009,76.416C105.009,61.69 93.842,47.577 71.508,46.35C69.79,46.228 68.072,46.228 66.476,46.228C61.813,46.228 57.395,46.596 53.1,47.209L53.1,37.883L71.385,37.76L71.385,18.494L53.1,18.616L53.1,2.786L33.711,2.786L33.711,18.862L6.591,19.107L6.591,38.374L33.711,38.128L33.711,52.241C13.708,60.34 0.946,74.698 0.946,87.092C0.946,95.069 6.1,102.063 17.881,106.481C22.912,108.322 27.698,109.304 31.87,109.304C44.756,109.304 53.1,101.327 53.1,88.687L53.1,66.721C57.763,65.739 62.549,65.126 67.213,65.126C68.317,65.126 69.421,65.126 70.526,65.249C78.993,65.862 83.411,70.648 83.411,75.925C83.411,82.674 76.048,90.283 60.709,90.283C58.868,90.283 57.027,90.16 54.941,89.914L60.586,109.917L62.304,109.917ZM114.581,39.601C107.218,30.029 96.787,19.353 89.056,12.481L72.98,23.77C81.08,30.765 92.615,44.019 98.628,52.854L114.581,39.601ZM33.711,85.374C33.711,87.828 32.729,89.424 30.275,89.424C29.171,89.424 27.821,89.055 26.103,88.442C23.526,87.46 22.298,86.11 22.298,84.392C22.298,81.202 26.839,77.152 33.711,73.593L33.711,85.374Z" style="fill:white;fill-rule:nonzero;"/>
        <path d="M218.153,111.144L218.153,55.799L184.161,55.799C198.028,48.191 208.213,33.833 212.631,23.28L212.631,6.958L172.012,6.958L174.589,2.786L150.782,0.945C135.197,18.248 116.054,23.402 116.054,23.402L127.712,43.405C127.712,43.405 131.393,42.055 137.529,38.619C140.351,41.073 144.892,45.369 150.046,50.523C143.419,53.468 132.498,56.658 114.336,58.867L120.962,81.324L129.675,79.238L129.675,111.144L149.31,111.144L149.31,108.322L198.519,108.322L198.519,111.144L218.153,111.144ZM188.824,24.752C185.634,30.643 178.271,37.515 171.644,41.564C165.999,36.165 159.004,30.274 155.077,27.084L157.777,24.752L188.824,24.752ZM198.519,90.528L149.31,90.528L149.31,72.98L198.519,72.98L198.519,90.528Z" style="fill:white;fill-rule:nonzero;"/>
        <path d="M341.36,31.502L341.36,12.481L318.044,12.481C319.272,9.781 320.499,6.713 321.849,3.154L301.11,0.945C299.392,5.608 297.428,9.535 295.833,12.481L276.198,12.481C274.971,9.167 273.13,4.995 270.921,0.945L249.814,4.013C251.41,6.958 252.759,9.904 253.864,12.481L230.916,12.481L230.916,31.502L341.36,31.502ZM312.399,84.515L312.399,38.742L295.219,38.742L295.219,84.515L312.399,84.515ZM306.509,111.022C331.175,111.022 337.065,107.34 337.065,91.878L337.065,35.183L317.431,35.183L317.431,86.11C317.431,90.283 317.063,90.774 298.287,90.774L306.509,111.022ZM268.099,110.531C287.979,110.531 289.82,105.868 289.82,87.215L289.82,35.797L236.07,35.797L236.07,111.144L255.705,111.144L255.705,86.969L270.185,86.969C270.185,90.896 269.94,91.51 262.577,91.51L259.877,91.51L265.154,110.531L268.099,110.531ZM270.185,56.781L255.705,56.781L255.705,52.118L270.185,52.118L270.185,56.781ZM270.185,74.452L255.705,74.452L255.705,69.298L270.185,69.298L270.185,74.452Z" style="fill:white;fill-rule:nonzero;"/>
        <rect x="351.669" y="79.238" width="22.089" height="22.702" style="fill:white;fill-rule:nonzero;"/>
        <path d="M439.656,78.256C435.852,83.411 428.612,86.478 422.476,86.478C412.781,86.478 403.946,80.465 403.946,67.703C403.946,55.186 413.272,49.295 421.985,49.295C428.244,49.295 434.379,51.627 438.429,56.658L445.178,40.092C438.552,34.938 430.943,31.992 418.917,31.992C397.319,31.992 382.225,45.859 382.225,67.703C382.225,91.264 399.405,103.536 418.917,103.536C432.048,103.536 439.656,100.223 446.405,93.596L439.656,78.256Z" style="fill:white;fill-rule:nonzero;"/>
        <path d="M519.422,67.826C519.422,46.105 505.923,31.992 483.588,31.992C461.254,31.992 447.51,46.105 447.51,67.826C447.51,89.424 461.254,103.536 483.588,103.536C505.923,103.536 519.422,89.424 519.422,67.826ZM483.588,86.601C474.876,86.601 469.353,79.361 469.353,67.826C469.353,56.29 474.876,49.173 483.588,49.173C492.301,49.173 497.578,56.29 497.578,67.826C497.578,79.484 492.301,86.601 483.588,86.601Z" style="fill:white;fill-rule:nonzero;"/>
        <path d="M624.221,101.941L624.221,54.695C624.221,41.442 615.631,31.992 603.605,31.992C593.788,31.992 585.811,35.674 582.866,42.178C580.166,36.288 573.662,31.992 565.195,31.992C554.887,31.992 548.751,35.674 545.806,41.196L545.806,33.588L526.294,33.588L526.294,101.941L547.769,101.941L547.769,58.254C549.242,53.222 551.819,49.541 556.85,49.541C562.372,49.541 564.458,52.977 564.458,59.972L564.458,101.941L585.811,101.941L585.811,59.235C586.179,53.959 589.124,49.541 594.892,49.541C600.414,49.541 602.746,52.854 602.746,59.972L602.746,101.941L624.221,101.941Z" style="fill:white;fill-rule:nonzero;"/>
        <path d="M745.342,89.178C738.102,82.552 730.125,76.907 722.026,72.857L721.535,43.651L740.802,43.528L740.802,24.875L721.167,24.998L720.799,5.486L701.042,5.486L701.532,25.12L668.644,25.366L668.644,44.019L701.901,43.773L702.391,65.494C698.342,64.635 694.538,64.144 690.979,64.144C678.953,64.144 669.626,69.298 667.049,80.833C666.681,82.306 666.558,83.779 666.558,85.251C666.558,99.118 682.021,107.463 696.624,107.463C706.809,107.463 716.626,103.291 720.799,94.332C725.217,97.646 729.144,100.959 733.684,105.499L745.342,89.178ZM661.281,103.659C660.3,95.314 659.932,84.76 659.932,73.716C659.932,49.173 662.018,21.807 664.963,7.081L644.347,4.504C642.26,23.893 640.297,52.732 640.297,79.115C640.297,89.055 640.542,98.505 641.156,106.972L661.281,103.659ZM702.882,84.27C702.882,88.565 699.201,90.16 695.274,90.16C690.488,90.16 685.334,87.828 685.334,84.76C685.334,84.515 685.457,84.27 685.457,84.024C685.947,82.061 688.034,80.956 691.347,80.956C694.292,80.956 698.219,81.815 702.882,83.656L702.882,84.27Z" style="fill:white;fill-rule:nonzero;"/>
        <path d="M834.311,96.541C784.366,59.972 773.076,57.763 773.076,54.818C773.076,52.118 783.507,49.786 832.716,18.616L817.745,0.086C770.131,37.637 748.655,37.883 748.655,54.327C748.655,70.403 770.622,72.366 819.094,114.335L834.311,96.541Z" style="fill:white;fill-rule:nonzero;"/>
        <path d="M932.484,89.546C927.821,90.16 923.28,90.528 919.231,90.528C906.223,90.528 896.896,87.337 895.915,81.324C895.792,80.588 895.792,79.974 895.792,79.361C895.792,64.267 924.998,59.972 943.651,59.604L942.67,41.932C924.876,42.669 901.437,44.755 888.184,46.35C897.878,42.178 913.831,32.851 924.139,25.611L924.139,8.554L856.032,9.045L856.277,27.329L889.288,26.47C866.708,41.932 848.546,50.768 838.852,53.345L840.938,70.648C853.087,68.071 867.69,65.862 882.661,63.653C877.753,67.948 874.93,74.943 874.93,82.061C874.93,83.779 875.053,85.374 875.421,87.092C878.244,100.836 892.479,110.04 920.826,110.04C923.894,110.04 926.962,109.917 930.275,109.672L932.484,89.546Z" style="fill:white;fill-rule:nonzero;"/>
        <rect x="944.756" y="79.238" width="22.089" height="22.702" style="fill:white;fill-rule:nonzero;"/>
        <path d="M1009.43,25.366L1009.43,6.222L987.216,6.222L987.216,25.366L1009.43,25.366ZM973.962,126.729C999.119,126.729 1009.06,120.225 1009.06,102.554L1009.06,33.588L987.584,33.588L987.584,98.014C987.584,106.727 985.743,108.813 970.158,108.813L968.808,108.813L973.962,126.729Z" style="fill:white;fill-rule:nonzero;"/>
        <path d="M1041.33,125.625L1041.33,98.014C1044.89,101.327 1052.13,103.536 1058.15,103.536C1075.94,103.536 1088.95,91.264 1088.95,67.703C1088.95,44.387 1076.18,31.992 1058.02,31.992C1050.54,31.992 1041.7,35.551 1039.37,42.178L1039.37,33.588L1019.86,33.588L1019.86,125.625L1041.33,125.625ZM1040.96,62.672C1040.96,54.818 1046.37,49.173 1053.24,49.173C1061.95,49.173 1067.1,55.309 1067.1,67.703C1067.1,80.465 1061.34,86.847 1053.36,86.847C1046.98,86.847 1042.93,82.674 1040.96,78.379L1040.96,62.672Z" style="fill:white;fill-rule:nonzero;"/>
    </g>
</svg>
